<?xml version="1.0" standalone="no"?>
<!DOCTYPE svg PUBLIC "-//W3C//DTD SVG 20010904//EN"
 "http://www.w3.org/TR/2001/REC-SVG-20010904/DTD/svg10.dtd">
<svg version="1.0" xmlns="http://www.w3.org/2000/svg"
 width="300.000000pt" height="142.000000pt" viewBox="0 0 300.000000 142.000000"
 preserveAspectRatio="xMidYMid meet">
<metadata>
Created by potrace 1.10, written by Peter Selinger 2001-2011
</metadata>
<g transform="translate(0.000000,142.000000) scale(0.100000,-0.100000)"
fill="#000000" stroke="none">
<path d="M413 1152 c-100 -36 -171 -101 -215 -199 -18 -38 -22 -67 -23 -138 0
-82 3 -96 33 -157 36 -74 95 -132 170 -169 40 -20 63 -24 147 -24 86 0 106 3
145 24 101 54 155 116 189 218 12 34 21 65 21 68 0 3 -31 5 -70 5 l-70 0 0 35
0 35 70 0 70 0 -6 28 c-25 110 -115 221 -211 263 -69 30 -183 35 -250 11z
m231 -35 c77 -26 186 -152 186 -214 0 -20 -5 -23 -41 -23 -47 0 -78 -28 -79
-71 0 -35 27 -57 75 -61 49 -4 54 -19 25 -80 -27 -58 -82 -113 -144 -146 -45
-23 -62 -26 -146 -26 -85 0 -100 3 -145 28 -70 39 -98 69 -137 140 -30 55 -33
69 -33 146 0 71 5 94 27 140 14 30 39 69 55 86 37 39 115 85 162 95 45 10 148
2 195 -14z"/>
<path d="M434 1033 c-86 -30 -136 -109 -137 -217 0 -85 23 -143 80 -198 101
-98 279 -55 323 78 10 30 9 38 -6 55 -24 27 -38 24 -73 -17 -54 -61 -140 -53
-176 16 -16 31 -20 70 -7 70 21 1 189 29 203 35 9 3 22 17 29 31 12 21 11 29
-7 62 -12 20 -40 52 -63 70 -47 36 -92 40 -166 15z m147 -36 c40 -27 79 -91
64 -106 -6 -6 -63 -19 -128 -29 -65 -11 -120 -22 -123 -25 -3 -3 1 -30 10 -60
21 -74 69 -117 129 -117 51 0 104 30 117 66 11 29 37 27 32 -2 -6 -34 -51 -93
-84 -110 -41 -21 -124 -22 -165 -1 -61 32 -113 127 -113 206 0 143 156 249
261 178z"/>
<path d="M426 955 c-21 -23 -42 -73 -34 -80 2 -2 40 4 86 12 88 17 95 24 61
67 -28 36 -81 36 -113 1z m82 -17 c-3 -7 -20 -14 -38 -16 -30 -3 -32 -2 -21
12 16 19 65 22 59 4z"/>
<path d="M1074 1141 c-80 -36 -114 -138 -76 -224 16 -36 32 -52 74 -76 29 -17
70 -36 91 -43 58 -18 114 -71 122 -117 17 -104 -81 -172 -181 -125 -44 21 -73
62 -82 115 -11 64 -29 60 -36 -8 -4 -32 -8 -73 -11 -90 -4 -37 9 -52 23 -26 9
16 14 15 62 -11 45 -25 60 -28 119 -24 48 2 75 9 97 26 67 47 94 173 55 250
-26 50 -47 65 -146 102 -101 38 -122 53 -136 98 -33 111 98 184 190 107 16
-14 36 -43 45 -65 22 -56 40 -52 32 6 -3 26 -6 62 -6 80 0 23 -5 34 -14 34 -8
0 -16 -4 -18 -10 -2 -6 -19 -4 -43 5 -55 19 -112 18 -161 -4z"/>
<path d="M1521 878 c-68 -36 -93 -91 -89 -190 2 -58 8 -83 24 -104 33 -45 70
-67 122 -72 62 -6 114 18 147 66 31 46 13 61 -24 20 -33 -38 -93 -48 -140 -23
-39 20 -70 82 -71 140 l0 40 116 -3 c64 -2 120 0 125 5 5 5 4 25 -3 45 -27 89
-120 123 -207 76z m112 -26 c9 -10 18 -29 19 -43 3 -23 1 -24 -74 -27 -90 -3
-99 8 -49 59 34 34 79 39 104 11z"/>
<path d="M2484 881 c-73 -33 -117 -121 -59 -121 28 0 46 27 39 57 -7 26 17 45
60 46 51 1 66 -16 66 -78 l0 -53 -64 -27 c-102 -43 -134 -91 -112 -163 14 -42
103 -41 153 2 l28 24 17 -29 c13 -21 26 -29 46 -29 35 0 72 26 72 51 0 22 -4
23 -30 7 -37 -23 -45 2 -46 140 0 70 -4 136 -7 148 -15 45 -93 57 -163 25z
m81 -308 c-31 -27 -57 -29 -79 -7 -33 33 -5 89 62 123 l37 19 3 -56 c3 -51 0
-59 -23 -79z"/>
<path d="M2736 892 c7 -4 14 -18 17 -32 4 -25 4 -25 6 3 0 15 6 27 11 27 6 0
10 -12 11 -27 0 -24 2 -25 8 -9 7 19 8 19 14 1 4 -10 10 -16 13 -13 2 3 -1 17
-7 32 -10 21 -19 26 -48 26 -20 0 -31 -4 -25 -8z"/>
<path d="M2825 891 c-8 -14 3 -51 16 -51 5 0 6 12 3 28 -8 34 -10 36 -19 23z"/>
<path d="M1750 876 c0 -9 12 -16 28 -18 25 -3 31 -13 92 -177 36 -96 69 -175
75 -175 5 -1 34 59 65 131 30 73 57 133 60 133 3 0 21 -46 39 -102 48 -148 59
-174 72 -161 6 6 37 77 70 159 68 170 82 194 109 194 11 0 20 7 20 15 0 12
-14 15 -70 15 -56 0 -70 -3 -70 -15 0 -8 7 -15 16 -15 13 0 15 -7 11 -32 -6
-41 -70 -224 -74 -212 -1 5 -18 58 -37 117 l-34 108 25 10 c47 18 20 32 -65
34 -73 1 -82 -1 -82 -17 0 -13 8 -18 25 -18 18 0 25 -5 25 -20 0 -30 -88 -237
-94 -220 -13 38 -66 229 -66 239 0 6 7 11 15 11 8 0 15 7 15 15 0 12 -16 15
-85 15 -67 0 -85 -3 -85 -14z"/>
<path d="M950 378 c1 -22 29 -89 36 -88 5 0 14 15 20 33 l11 32 7 -32 c4 -18
12 -35 16 -38 8 -5 41 86 34 94 -8 9 -24 -13 -24 -35 0 -14 -4 -22 -10 -19 -5
3 -10 15 -10 25 0 34 -20 32 -32 -2 l-12 -33 -8 33 c-5 17 -13 32 -18 32 -6 0
-10 -1 -10 -2z"/>
<path d="M1100 374 c0 -22 24 -94 31 -94 5 0 12 14 16 30 3 17 9 30 13 30 4 0
10 -13 14 -30 7 -37 22 -39 30 -2 3 15 8 37 12 50 3 12 2 22 -4 22 -5 0 -13
-15 -17 -32 l-7 -33 -11 33 c-5 17 -13 32 -17 32 -4 0 -12 -15 -17 -32 l-11
-33 -7 33 c-4 17 -11 32 -16 32 -5 0 -9 -3 -9 -6z"/>
<path d="M1240 377 c0 -2 7 -25 16 -51 18 -51 23 -51 40 -3 l11 32 7 -32 c4
-18 11 -35 16 -38 8 -5 43 85 36 93 -10 10 -26 -11 -26 -34 0 -14 -4 -22 -10
-19 -5 3 -10 15 -10 25 0 24 -19 36 -25 16 -16 -50 -17 -51 -27 -18 -5 17 -13
32 -18 32 -6 0 -10 -1 -10 -3z"/>
<path d="M1450 359 c-24 -45 21 -98 62 -73 9 6 4 10 -16 14 -41 7 -46 30 -7
30 32 0 41 16 19 38 -18 18 -46 14 -58 -9z"/>
<path d="M1553 364 c-6 -16 12 -37 41 -47 6 -2 7 -8 3 -13 -4 -4 -17 -3 -27 4
-17 10 -20 10 -20 -3 0 -16 43 -31 59 -20 21 12 12 44 -14 51 -14 3 -25 11
-25 16 0 6 11 7 26 4 19 -5 25 -3 22 6 -7 21 -57 22 -65 2z"/>
<path d="M1660 359 c-24 -45 21 -98 62 -73 9 6 4 10 -16 14 -41 7 -46 30 -7
30 32 0 41 16 19 38 -18 18 -46 14 -58 -9z"/>
<path d="M1765 335 c20 -69 23 -69 47 5 3 9 8 2 12 -17 4 -18 11 -35 16 -38 9
-6 43 85 34 94 -7 8 -24 -20 -24 -42 0 -10 -4 -15 -10 -12 -5 3 -10 15 -10 25
0 24 -19 36 -25 16 -15 -49 -18 -51 -24 -22 -3 16 -12 31 -18 33 -10 4 -9 -7
2 -42z"/>
<path d="M1917 374 c-15 -15 -6 -24 18 -18 15 4 25 2 25 -5 0 -6 -8 -11 -19
-11 -10 0 -24 -7 -31 -15 -18 -22 4 -44 41 -43 29 1 30 2 27 47 -3 41 -6 46
-28 49 -14 2 -29 0 -33 -4z m43 -59 c0 -8 -9 -15 -20 -15 -20 0 -26 11 -13 23
12 13 33 7 33 -8z"/>
<path d="M2082 368 c-25 -25 -6 -88 27 -88 21 0 47 27 37 37 -4 4 -11 1 -16
-6 -11 -19 -40 -6 -40 19 0 26 25 36 46 19 14 -12 16 -11 13 6 -5 24 -48 32
-67 13z"/>
<path d="M2191 366 c-17 -20 -10 -67 12 -80 24 -15 51 4 55 38 6 48 -39 75
-67 42z m49 -36 c0 -23 -4 -30 -20 -30 -16 0 -20 7 -20 30 0 23 4 30 20 30 16
0 20 -7 20 -30z"/>
<path d="M2290 329 c0 -27 5 -49 10 -49 6 0 10 18 10 40 0 33 3 40 20 40 17 0
20 -7 20 -40 0 -22 5 -40 10 -40 6 0 10 18 10 40 0 29 4 40 15 40 11 0 15 -11
15 -40 0 -22 5 -40 11 -40 6 0 9 19 7 48 l-3 47 -62 1 -63 1 0 -48z"/>
<path d="M2520 328 c0 -26 5 -48 10 -48 6 0 10 18 10 41 0 33 3 40 18 37 12
-2 18 -14 20 -41 4 -41 22 -42 22 -1 0 42 -17 63 -50 62 -29 -1 -30 -3 -30
-50z"/>
<path d="M2630 314 c0 -36 4 -64 10 -64 6 0 10 9 10 20 0 13 5 18 15 14 22 -9
45 14 45 46 0 33 -16 48 -52 48 -28 0 -28 -1 -28 -64z m60 16 c0 -23 -4 -30
-20 -30 -16 0 -20 7 -20 30 0 23 4 30 20 30 16 0 20 -7 20 -30z"/>
</g>
</svg>
